<?xml version="1.0" standalone="no"?>
<!DOCTYPE svg PUBLIC "-//W3C//DTD SVG 20010904//EN"
 "http://www.w3.org/TR/2001/REC-SVG-20010904/DTD/svg10.dtd">
<svg version="1.0" xmlns="http://www.w3.org/2000/svg"
 width="530.000000pt" height="188.000000pt" viewBox="0 0 530.000000 188.000000"
 preserveAspectRatio="xMidYMid meet">

<g transform="translate(0.000000,188.000000) scale(0.100000,-0.100000)"
fill="#000000" stroke="none">
<path d="M0 945 l0 -935 940 0 940 0 0 935 0 935 -940 0 -940 0 0 -935z m1695
-5 l0 -745 -750 0 -750 0 -3 735 c-1 404 0 741 3 748 3 10 159 12 752 10 l748
-3 0 -745z"/>
<path d="M1334 1491 c-61 -37 -68 -147 -11 -183 87 -57 187 -8 187 91 -1 94
-94 142 -176 92z"/>
<path d="M370 1081 c0 -169 5 -333 10 -362 14 -75 63 -171 107 -210 21 -17 62
-44 93 -58 49 -23 67 -26 170 -26 97 0 124 4 174 24 101 40 179 136 206 253 5
24 10 188 10 366 l0 322 -94 0 -95 0 -1 -320 c0 -185 -5 -332 -10 -347 -21
-57 -35 -75 -79 -101 -78 -45 -190 -32 -248 30 -49 52 -53 88 -53 424 l0 314
-95 0 -95 0 0 -309z"/>
<path d="M1300 805 l0 -375 95 0 95 0 0 375 0 375 -95 0 -95 0 0 -375z"/>
<path d="M4310 935 l0 -505 95 0 95 0 0 233 c0 252 6 283 61 334 82 75 227 51
277 -47 21 -42 22 -55 22 -282 l0 -238 96 0 95 0 -3 268 -3 267 -28 57 c-61
125 -192 188 -347 167 -65 -9 -111 -29 -147 -62 l-23 -20 0 166 0 167 -95 0
-95 0 0 -505z"/>
<path d="M5038 1430 c19 -8 22 -17 22 -65 0 -30 3 -55 8 -55 4 0 5 25 4 55 -4
50 -2 56 20 64 19 8 14 10 -27 10 -40 0 -45 -2 -27 -9z"/>
<path d="M5152 1373 c1 -57 2 -60 5 -20 2 26 8 47 12 47 5 0 16 -20 25 -45 10
-25 22 -45 27 -45 6 0 20 21 32 48 l22 47 3 -47 c5 -72 22 -58 22 17 0 81 -17
86 -50 15 -13 -27 -27 -50 -31 -50 -4 0 -15 23 -25 50 -26 73 -44 66 -42 -17z"/>
<path d="M2090 910 l0 -480 93 0 92 0 0 152 0 153 140 6 c151 7 200 19 265 66
86 63 126 162 117 292 -10 146 -80 234 -217 275 -42 13 -102 16 -272 16 l-218
0 0 -480z m439 310 c56 -28 85 -91 79 -171 -5 -63 -23 -97 -72 -133 -24 -18
-42 -21 -144 -21 l-117 0 -3 160 c-1 87 0 165 2 172 4 10 34 13 111 13 85 0
113 -4 144 -20z"/>
<path d="M3848 1288 l-3 -103 -42 -3 -43 -3 0 -74 0 -74 43 -3 42 -3 5 -220
c6 -238 10 -258 63 -313 41 -42 109 -62 214 -62 l83 0 0 80 0 80 -63 0 c-110
0 -121 27 -115 290 l3 145 88 3 87 3 0 74 0 74 -87 3 -88 3 0 103 0 102 -92 0
-92 0 -3 -102z"/>
<path d="M3093 1171 c-128 -44 -211 -160 -228 -321 -8 -76 12 -185 45 -250 29
-57 95 -121 155 -149 103 -49 269 -38 350 25 25 19 47 34 50 34 3 0 5 -18 5
-40 l0 -40 90 0 90 0 0 375 0 375 -90 0 -90 0 0 -40 c0 -22 -3 -40 -6 -40 -3
0 -21 12 -39 26 -83 63 -224 83 -332 45z m252 -160 c78 -36 117 -106 117 -208
1 -155 -121 -252 -264 -213 -89 25 -141 105 -141 215 1 104 42 177 118 211 43
19 123 17 170 -5z"/>
</g>
</svg>
